<?xml version="1.0" encoding="UTF-8"?>
<!--Generator: Apple Native CoreSVG 341-->
<!DOCTYPE svg
PUBLIC "-//W3C//DTD SVG 1.1//EN"
       "http://www.w3.org/Graphics/SVG/1.1/DTD/svg11.dtd">
<svg version="1.1" xmlns="http://www.w3.org/2000/svg" xmlns:xlink="http://www.w3.org/1999/xlink" viewBox="0 0 48.1641 47.8359">
 <g>
  <rect height="47.8359" opacity="0" width="48.1641" x="0" y="0"/>
  <path d="M23.9062 47.8125C37.1016 47.8125 47.8125 37.1016 47.8125 23.9062C47.8125 10.7109 37.1016 0 23.9062 0C10.7109 0 0 10.7109 0 23.9062C0 37.1016 10.7109 47.8125 23.9062 47.8125ZM23.9062 43.8281C12.8906 43.8281 3.98438 34.9219 3.98438 23.9062C3.98438 12.8906 12.8906 3.98438 23.9062 3.98438C34.9219 3.98438 43.8281 12.8906 43.8281 23.9062C43.8281 34.9219 34.9219 43.8281 23.9062 43.8281Z" fill="white" fill-opacity="0.85"/>
  <path d="M17.25 33.2344L33.2109 17.25C33.5859 16.8984 33.7734 16.4531 33.7734 15.9375C33.7734 14.9062 32.9297 14.0859 31.8984 14.0859C31.3828 14.0859 30.9609 14.2734 30.6094 14.6484L14.5781 30.5859C14.2266 30.9609 14.0156 31.3828 14.0156 31.9219C14.0156 32.9766 14.8594 33.8203 15.8906 33.8203C16.4531 33.8203 16.8984 33.5859 17.25 33.2344ZM30.5625 33.2344C30.9141 33.5859 31.3594 33.8203 31.8984 33.8203C32.9297 33.8203 33.7734 32.9766 33.7734 31.9219C33.7734 31.3828 33.5859 30.9609 33.2109 30.5859L17.2031 14.6484C16.8516 14.2734 16.4062 14.0859 15.8906 14.0859C14.8594 14.0859 14.0156 14.9062 14.0156 15.9375C14.0156 16.4531 14.2266 16.8984 14.5781 17.25Z" fill="white" fill-opacity="0.85"/>
 </g>
</svg>
